{
  "accessors": [
    {
      "bufferView": 2,
      "componentType": 5126,
      "count": 22615,
      "max": [
        0.6730980277061462,
        0.2132139950990677,
        1.7712669372558594
      ],
      "min": [
        -0.6730980277061462,
        -0.1431419998407364,
        -0.00035399850457906723
      ],
      "type": "VEC3"
    },
    {
      "bufferView": 2,
      "byteOffset": 271380,
      "componentType": 5126,
      "count": 22615,
      "max": [
        1.0,
        0.9998406171798706,
        0.999997615814209
      ],
      "min": [
        -1.0,
        -0.9999997615814209,
        -0.9999978542327881
      ],
      "type": "VEC3"
    },
    {
      "bufferView": 1,
      "componentType": 5126,
      "count": 22615,
      "max": [
        0.9989060163497925,
        0.9993460178375244
      ],
      "min": [
        0.0021730000153183937,
        0.001133000012487173
      ],
      "type": "VEC2"
    },
    {
      "bufferView": 1,
      "byteOffset": 180920,
      "componentType": 5126,
      "count": 22615,
      "max": [
        0.9989060163497925,
        0.9993460178375244
      ],
      "min": [
        0.0021730000153183937,
        0.001133000012487173
      ],
      "type": "VEC2"
    },
    {
      "bufferView": 0,
      "componentType": 5125,
      "count": 123012,
      "type": "SCALAR"
    }
  ],
  "asset": {
    "extras": {
      "author": "rato biônico games (https://sketchfab.com/felip32pppp)",
      "license": "CC-BY-4.0 (http://creativecommons.org/licenses/by/4.0/)",
      "source": "https://sketchfab.com/3d-models/manequin-3087ff2a167241ae997291667dc9f079",
      "title": "MANEQUIN"
    },
    "generator": "Sketchfab-12.74.0",
    "version": "2.0"
  },
  "bufferViews": [
    {
      "buffer": 0,
      "byteLength": 492048,
      "name": "floatBufferViews",
      "target": 34963
    },
    {
      "buffer": 0,
      "byteLength": 361840,
      "byteOffset": 492048,
      "byteStride": 8,
      "name": "floatBufferViews",
      "target": 34962
    },
    {
      "buffer": 0,
      "byteLength": 542760,
      "byteOffset": 853888,
      "byteStride": 12,
      "name": "floatBufferViews",
      "target": 34962
    }
  ],
  "buffers": [
    {
      "byteLength": 1396648,
      "uri": "scene.bin"
    }
  ],
  "images": [
    {
      "uri": "textures/Material.005_baseColor.png"
    }
  ],
  "materials": [
    {
      "doubleSided": true,
      "name": "Material.005",
      "pbrMetallicRoughness": {
        "baseColorTexture": {
          "index": 0
        },
        "metallicFactor": 0.0,
        "roughnessFactor": 0.057875492328883595
      }
    }
  ],
  "meshes": [
    {
      "name": "Body.001_Material.005_0",
      "primitives": [
        {
          "attributes": {
            "NORMAL": 1,
            "POSITION": 0,
            "TEXCOORD_0": 2,
            "TEXCOORD_1": 3
          },
          "indices": 4,
          "material": 0,
          "mode": 4
        }
      ]
    }
  ],
  "nodes": [
    {
      "children": [
        1
      ],
      "matrix": [
        1.0,
        0.0,
        0.0,
        0.0,
        0.0,
        2.220446049250313e-16,
        -1.0,
        0.0,
        0.0,
        1.0,
        2.220446049250313e-16,
        0.0,
        0.0,
        0.0,
        0.0,
        1.0
      ],
      "name": "Sketchfab_model"
    },
    {
      "children": [
        2
      ],
      "matrix": [
        1.0,
        0.0,
        0.0,
        0.0,
        0.0,
        0.0,
        1.0,
        0.0,
        0.0,
        -1.0,
        0.0,
        0.0,
        0.0,
        0.0,
        0.0,
        1.0
      ],
      "name": "c38a6c339ea4422da980edaea2b7f1eb.fbx"
    },
    {
      "children": [
        3
      ],
      "name": "Object_2"
    },
    {
      "children": [
        4
      ],
      "name": "RootNode"
    },
    {
      "children": [
        5
      ],
      "name": "Body.001",
      "rotation": [
        -8.500084192064605e-08,
        0.6829659938812256,
        0.7304501533508301,
        1.96335054880592e-08
      ],
      "scale": [
        1.9604477882385254,
        1.9604471921920776,
        1.9604471921920776
      ],
      "translation": [
        3.7398201868654724e-08,
        -4.035172196381609e-08,
        -0.24767710268497467
      ]
    },
    {
      "mesh": 0,
      "name": "Body.001_Material.005_0"
    }
  ],
  "samplers": [
    {
      "magFilter": 9729,
      "minFilter": 9987,
      "wrapS": 10497,
      "wrapT": 10497
    }
  ],
  "scene": 0,
  "scenes": [
    {
      "name": "Sketchfab_Scene",
      "nodes": [
        0
      ]
    }
  ],
  "textures": [
    {
      "sampler": 0,
      "source": 0
    }
  ]
}
